<mxfile host="app.diagrams.net" agent="Mozilla/5.0 (Windows NT 10.0; Win64; x64) AppleWebKit/537.36 (KHTML, like Gecko) Chrome/139.0.0.0 Safari/537.36" version="28.1.1">
  <diagram name="Página-1" id="WromaCvwBewTi8yLFdye">
    <mxGraphModel dx="1097" dy="663" grid="1" gridSize="10" guides="1" tooltips="1" connect="1" arrows="1" fold="1" page="1" pageScale="1" pageWidth="1600" pageHeight="1600" math="0" shadow="0">
      <root>
        <mxCell id="0" />
        <mxCell id="1" parent="0" />
        <mxCell id="1wBnCwj3mZTLV84sw9-a-1" value="&lt;font style=&quot;font-size: 11px;&quot;&gt;Proyectos&lt;/font&gt;" style="rounded=0;whiteSpace=wrap;html=1;align=center;" vertex="1" parent="1">
          <mxGeometry x="560" y="860" width="136" height="70" as="geometry" />
        </mxCell>
        <mxCell id="1wBnCwj3mZTLV84sw9-a-5" value="" style="endArrow=none;html=1;rounded=0;exitX=0.5;exitY=0;exitDx=0;exitDy=0;entryX=0.5;entryY=1;entryDx=0;entryDy=0;" edge="1" parent="1" source="1wBnCwj3mZTLV84sw9-a-1" target="1wBnCwj3mZTLV84sw9-a-8">
          <mxGeometry width="50" height="50" relative="1" as="geometry">
            <mxPoint x="564" y="930" as="sourcePoint" />
            <mxPoint x="630" y="800" as="targetPoint" />
          </mxGeometry>
        </mxCell>
        <mxCell id="1wBnCwj3mZTLV84sw9-a-67" style="edgeStyle=orthogonalEdgeStyle;rounded=0;orthogonalLoop=1;jettySize=auto;html=1;exitX=0.5;exitY=0;exitDx=0;exitDy=0;" edge="1" parent="1" source="1wBnCwj3mZTLV84sw9-a-6" target="1wBnCwj3mZTLV84sw9-a-59">
          <mxGeometry relative="1" as="geometry" />
        </mxCell>
        <mxCell id="1wBnCwj3mZTLV84sw9-a-6" value="Clientes" style="rounded=0;whiteSpace=wrap;html=1;" vertex="1" parent="1">
          <mxGeometry x="568" y="630" width="120" height="60" as="geometry" />
        </mxCell>
        <mxCell id="1wBnCwj3mZTLV84sw9-a-7" value="" style="endArrow=none;html=1;rounded=0;exitX=1;exitY=0.5;exitDx=0;exitDy=0;" edge="1" parent="1" source="1wBnCwj3mZTLV84sw9-a-1">
          <mxGeometry width="50" height="50" relative="1" as="geometry">
            <mxPoint x="680" y="860" as="sourcePoint" />
            <mxPoint x="770" y="895" as="targetPoint" />
          </mxGeometry>
        </mxCell>
        <mxCell id="1wBnCwj3mZTLV84sw9-a-8" value="Tiene" style="rhombus;whiteSpace=wrap;html=1;" vertex="1" parent="1">
          <mxGeometry x="588" y="730" width="80" height="80" as="geometry" />
        </mxCell>
        <mxCell id="1wBnCwj3mZTLV84sw9-a-9" value="" style="endArrow=none;html=1;rounded=0;entryX=0.5;entryY=0;entryDx=0;entryDy=0;exitX=0.5;exitY=1;exitDx=0;exitDy=0;" edge="1" parent="1" source="1wBnCwj3mZTLV84sw9-a-6" target="1wBnCwj3mZTLV84sw9-a-8">
          <mxGeometry width="50" height="50" relative="1" as="geometry">
            <mxPoint x="680" y="860" as="sourcePoint" />
            <mxPoint x="730" y="810" as="targetPoint" />
          </mxGeometry>
        </mxCell>
        <mxCell id="1wBnCwj3mZTLV84sw9-a-10" value="Tiene" style="rhombus;whiteSpace=wrap;html=1;" vertex="1" parent="1">
          <mxGeometry x="770" y="855" width="80" height="80" as="geometry" />
        </mxCell>
        <mxCell id="1wBnCwj3mZTLV84sw9-a-11" value="" style="endArrow=none;html=1;rounded=0;entryX=1;entryY=0.5;entryDx=0;entryDy=0;" edge="1" parent="1" target="1wBnCwj3mZTLV84sw9-a-10">
          <mxGeometry width="50" height="50" relative="1" as="geometry">
            <mxPoint x="930" y="895" as="sourcePoint" />
            <mxPoint x="730" y="810" as="targetPoint" />
          </mxGeometry>
        </mxCell>
        <mxCell id="1wBnCwj3mZTLV84sw9-a-12" value="Colaboradores" style="rounded=0;whiteSpace=wrap;html=1;" vertex="1" parent="1">
          <mxGeometry x="930" y="865" width="120" height="60" as="geometry" />
        </mxCell>
        <mxCell id="1wBnCwj3mZTLV84sw9-a-13" value="" style="endArrow=none;html=1;rounded=0;entryX=0.5;entryY=0;entryDx=0;entryDy=0;" edge="1" parent="1" target="1wBnCwj3mZTLV84sw9-a-12">
          <mxGeometry width="50" height="50" relative="1" as="geometry">
            <mxPoint x="990" y="800" as="sourcePoint" />
            <mxPoint x="730" y="810" as="targetPoint" />
          </mxGeometry>
        </mxCell>
        <mxCell id="1wBnCwj3mZTLV84sw9-a-14" value="Reciben" style="rhombus;whiteSpace=wrap;html=1;" vertex="1" parent="1">
          <mxGeometry x="950" y="720" width="80" height="80" as="geometry" />
        </mxCell>
        <mxCell id="1wBnCwj3mZTLV84sw9-a-15" value="" style="endArrow=none;html=1;rounded=0;entryX=0.5;entryY=0;entryDx=0;entryDy=0;" edge="1" parent="1" target="1wBnCwj3mZTLV84sw9-a-14">
          <mxGeometry width="50" height="50" relative="1" as="geometry">
            <mxPoint x="990" y="660" as="sourcePoint" />
            <mxPoint x="730" y="810" as="targetPoint" />
          </mxGeometry>
        </mxCell>
        <mxCell id="1wBnCwj3mZTLV84sw9-a-16" value="Pagos" style="rounded=0;whiteSpace=wrap;html=1;" vertex="1" parent="1">
          <mxGeometry x="930" y="600" width="120" height="60" as="geometry" />
        </mxCell>
        <mxCell id="1wBnCwj3mZTLV84sw9-a-18" value="" style="endArrow=none;html=1;rounded=0;entryX=0.5;entryY=1;entryDx=0;entryDy=0;" edge="1" parent="1" target="1wBnCwj3mZTLV84sw9-a-1">
          <mxGeometry width="50" height="50" relative="1" as="geometry">
            <mxPoint x="628" y="980" as="sourcePoint" />
            <mxPoint x="690" y="810" as="targetPoint" />
          </mxGeometry>
        </mxCell>
        <mxCell id="1wBnCwj3mZTLV84sw9-a-19" value="Tiene" style="rhombus;whiteSpace=wrap;html=1;" vertex="1" parent="1">
          <mxGeometry x="588" y="970" width="80" height="80" as="geometry" />
        </mxCell>
        <mxCell id="1wBnCwj3mZTLV84sw9-a-20" value="" style="endArrow=none;html=1;rounded=0;entryX=0.5;entryY=1;entryDx=0;entryDy=0;" edge="1" parent="1" target="1wBnCwj3mZTLV84sw9-a-19">
          <mxGeometry width="50" height="50" relative="1" as="geometry">
            <mxPoint x="628" y="1090" as="sourcePoint" />
            <mxPoint x="730" y="1040" as="targetPoint" />
          </mxGeometry>
        </mxCell>
        <mxCell id="1wBnCwj3mZTLV84sw9-a-21" value="Contrato" style="rounded=0;whiteSpace=wrap;html=1;" vertex="1" parent="1">
          <mxGeometry x="568" y="1090" width="120" height="60" as="geometry" />
        </mxCell>
        <mxCell id="1wBnCwj3mZTLV84sw9-a-30" value="n:m" style="text;strokeColor=none;fillColor=none;spacingLeft=4;spacingRight=4;overflow=hidden;rotatable=0;points=[[0,0.5],[1,0.5]];portConstraint=eastwest;fontSize=12;whiteSpace=wrap;html=1;" vertex="1" parent="1">
          <mxGeometry x="790" y="825" width="40" height="30" as="geometry" />
        </mxCell>
        <mxCell id="1wBnCwj3mZTLV84sw9-a-33" value="1:1" style="text;strokeColor=none;fillColor=none;spacingLeft=4;spacingRight=4;overflow=hidden;rotatable=0;points=[[0,0.5],[1,0.5]];portConstraint=eastwest;fontSize=12;whiteSpace=wrap;html=1;" vertex="1" parent="1">
          <mxGeometry x="680" y="995" width="40" height="30" as="geometry" />
        </mxCell>
        <mxCell id="1wBnCwj3mZTLV84sw9-a-37" value="n:m" style="text;strokeColor=none;fillColor=none;spacingLeft=4;spacingRight=4;overflow=hidden;rotatable=0;points=[[0,0.5],[1,0.5]];portConstraint=eastwest;fontSize=12;whiteSpace=wrap;html=1;" vertex="1" parent="1">
          <mxGeometry x="910" y="745" width="40" height="30" as="geometry" />
        </mxCell>
        <mxCell id="1wBnCwj3mZTLV84sw9-a-41" value="Código" style="strokeWidth=2;html=1;shape=mxgraph.flowchart.start_1;whiteSpace=wrap;" vertex="1" parent="1">
          <mxGeometry x="380" y="677.5" width="100" height="60" as="geometry" />
        </mxCell>
        <mxCell id="1wBnCwj3mZTLV84sw9-a-42" value="Descripción" style="strokeWidth=2;html=1;shape=mxgraph.flowchart.start_1;whiteSpace=wrap;" vertex="1" parent="1">
          <mxGeometry x="380" y="762.5" width="100" height="60" as="geometry" />
        </mxCell>
        <mxCell id="1wBnCwj3mZTLV84sw9-a-43" value="Monto del proyecto" style="strokeWidth=2;html=1;shape=mxgraph.flowchart.start_1;whiteSpace=wrap;" vertex="1" parent="1">
          <mxGeometry x="380" y="847.5" width="100" height="60" as="geometry" />
        </mxCell>
        <mxCell id="1wBnCwj3mZTLV84sw9-a-44" value="Fecha inicio" style="strokeWidth=2;html=1;shape=mxgraph.flowchart.start_1;whiteSpace=wrap;" vertex="1" parent="1">
          <mxGeometry x="380" y="930" width="100" height="60" as="geometry" />
        </mxCell>
        <mxCell id="1wBnCwj3mZTLV84sw9-a-46" value="Fecha término" style="strokeWidth=2;html=1;shape=mxgraph.flowchart.start_1;whiteSpace=wrap;" vertex="1" parent="1">
          <mxGeometry x="380" y="1010" width="100" height="60" as="geometry" />
        </mxCell>
        <mxCell id="1wBnCwj3mZTLV84sw9-a-52" style="edgeStyle=orthogonalEdgeStyle;rounded=0;orthogonalLoop=1;jettySize=auto;html=1;entryX=1;entryY=0.5;entryDx=0;entryDy=0;entryPerimeter=0;" edge="1" parent="1" target="1wBnCwj3mZTLV84sw9-a-43">
          <mxGeometry relative="1" as="geometry">
            <mxPoint x="480" y="878" as="sourcePoint" />
          </mxGeometry>
        </mxCell>
        <mxCell id="1wBnCwj3mZTLV84sw9-a-59" value="Código" style="strokeWidth=2;html=1;shape=mxgraph.flowchart.start_1;whiteSpace=wrap;" vertex="1" parent="1">
          <mxGeometry x="320" y="500" width="100" height="60" as="geometry" />
        </mxCell>
        <mxCell id="1wBnCwj3mZTLV84sw9-a-60" value="Teléfono" style="strokeWidth=2;html=1;shape=mxgraph.flowchart.start_1;whiteSpace=wrap;" vertex="1" parent="1">
          <mxGeometry x="440" y="500" width="100" height="60" as="geometry" />
        </mxCell>
        <mxCell id="1wBnCwj3mZTLV84sw9-a-61" value="Dirección" style="strokeWidth=2;html=1;shape=mxgraph.flowchart.start_1;whiteSpace=wrap;" vertex="1" parent="1">
          <mxGeometry x="560" y="500" width="100" height="60" as="geometry" />
        </mxCell>
        <mxCell id="1wBnCwj3mZTLV84sw9-a-62" value="Razón social" style="strokeWidth=2;html=1;shape=mxgraph.flowchart.start_1;whiteSpace=wrap;" vertex="1" parent="1">
          <mxGeometry x="680" y="500" width="100" height="60" as="geometry" />
        </mxCell>
        <mxCell id="1wBnCwj3mZTLV84sw9-a-63" style="edgeStyle=orthogonalEdgeStyle;rounded=0;orthogonalLoop=1;jettySize=auto;html=1;entryX=0.611;entryY=1.069;entryDx=0;entryDy=0;entryPerimeter=0;" edge="1" parent="1" source="1wBnCwj3mZTLV84sw9-a-6" target="1wBnCwj3mZTLV84sw9-a-62">
          <mxGeometry relative="1" as="geometry" />
        </mxCell>
        <mxCell id="1wBnCwj3mZTLV84sw9-a-65" style="edgeStyle=orthogonalEdgeStyle;rounded=0;orthogonalLoop=1;jettySize=auto;html=1;exitX=0.5;exitY=0;exitDx=0;exitDy=0;entryX=0.5;entryY=1;entryDx=0;entryDy=0;entryPerimeter=0;" edge="1" parent="1" source="1wBnCwj3mZTLV84sw9-a-6" target="1wBnCwj3mZTLV84sw9-a-61">
          <mxGeometry relative="1" as="geometry" />
        </mxCell>
        <mxCell id="1wBnCwj3mZTLV84sw9-a-66" style="edgeStyle=orthogonalEdgeStyle;rounded=0;orthogonalLoop=1;jettySize=auto;html=1;exitX=0.5;exitY=0;exitDx=0;exitDy=0;entryX=0.5;entryY=1;entryDx=0;entryDy=0;entryPerimeter=0;" edge="1" parent="1" source="1wBnCwj3mZTLV84sw9-a-6" target="1wBnCwj3mZTLV84sw9-a-60">
          <mxGeometry relative="1" as="geometry" />
        </mxCell>
        <mxCell id="1wBnCwj3mZTLV84sw9-a-69" style="edgeStyle=orthogonalEdgeStyle;rounded=0;orthogonalLoop=1;jettySize=auto;html=1;exitX=0;exitY=0.5;exitDx=0;exitDy=0;entryX=1;entryY=0.5;entryDx=0;entryDy=0;entryPerimeter=0;" edge="1" parent="1" source="1wBnCwj3mZTLV84sw9-a-1" target="1wBnCwj3mZTLV84sw9-a-43">
          <mxGeometry relative="1" as="geometry" />
        </mxCell>
        <mxCell id="1wBnCwj3mZTLV84sw9-a-70" style="edgeStyle=orthogonalEdgeStyle;rounded=0;orthogonalLoop=1;jettySize=auto;html=1;exitX=0;exitY=0.5;exitDx=0;exitDy=0;entryX=1;entryY=0.5;entryDx=0;entryDy=0;entryPerimeter=0;" edge="1" parent="1" source="1wBnCwj3mZTLV84sw9-a-1" target="1wBnCwj3mZTLV84sw9-a-42">
          <mxGeometry relative="1" as="geometry" />
        </mxCell>
        <mxCell id="1wBnCwj3mZTLV84sw9-a-71" style="edgeStyle=orthogonalEdgeStyle;rounded=0;orthogonalLoop=1;jettySize=auto;html=1;exitX=0;exitY=0.5;exitDx=0;exitDy=0;entryX=1;entryY=0.5;entryDx=0;entryDy=0;entryPerimeter=0;" edge="1" parent="1" source="1wBnCwj3mZTLV84sw9-a-1" target="1wBnCwj3mZTLV84sw9-a-41">
          <mxGeometry relative="1" as="geometry" />
        </mxCell>
        <mxCell id="1wBnCwj3mZTLV84sw9-a-72" style="edgeStyle=orthogonalEdgeStyle;rounded=0;orthogonalLoop=1;jettySize=auto;html=1;exitX=0;exitY=0.5;exitDx=0;exitDy=0;entryX=1;entryY=0.5;entryDx=0;entryDy=0;entryPerimeter=0;" edge="1" parent="1" source="1wBnCwj3mZTLV84sw9-a-1" target="1wBnCwj3mZTLV84sw9-a-44">
          <mxGeometry relative="1" as="geometry" />
        </mxCell>
        <mxCell id="1wBnCwj3mZTLV84sw9-a-73" style="edgeStyle=orthogonalEdgeStyle;rounded=0;orthogonalLoop=1;jettySize=auto;html=1;exitX=0;exitY=0.5;exitDx=0;exitDy=0;entryX=1;entryY=0.5;entryDx=0;entryDy=0;entryPerimeter=0;" edge="1" parent="1" source="1wBnCwj3mZTLV84sw9-a-1" target="1wBnCwj3mZTLV84sw9-a-46">
          <mxGeometry relative="1" as="geometry" />
        </mxCell>
        <mxCell id="1wBnCwj3mZTLV84sw9-a-74" value="RUT" style="strokeWidth=2;html=1;shape=mxgraph.flowchart.start_1;whiteSpace=wrap;" vertex="1" parent="1">
          <mxGeometry x="810" y="977.5" width="100" height="60" as="geometry" />
        </mxCell>
        <mxCell id="1wBnCwj3mZTLV84sw9-a-75" value="Nombre" style="strokeWidth=2;html=1;shape=mxgraph.flowchart.start_1;whiteSpace=wrap;" vertex="1" parent="1">
          <mxGeometry x="930" y="977.5" width="100" height="60" as="geometry" />
        </mxCell>
        <mxCell id="1wBnCwj3mZTLV84sw9-a-76" value="Dirección" style="strokeWidth=2;html=1;shape=mxgraph.flowchart.start_1;whiteSpace=wrap;" vertex="1" parent="1">
          <mxGeometry x="1050" y="977.5" width="100" height="60" as="geometry" />
        </mxCell>
        <mxCell id="1wBnCwj3mZTLV84sw9-a-77" value="Teléfono" style="strokeWidth=2;html=1;shape=mxgraph.flowchart.start_1;whiteSpace=wrap;" vertex="1" parent="1">
          <mxGeometry x="1170" y="977.5" width="100" height="60" as="geometry" />
        </mxCell>
        <mxCell id="1wBnCwj3mZTLV84sw9-a-78" value="Banco" style="strokeWidth=2;html=1;shape=mxgraph.flowchart.start_1;whiteSpace=wrap;" vertex="1" parent="1">
          <mxGeometry x="1290" y="977.5" width="100" height="60" as="geometry" />
        </mxCell>
        <mxCell id="1wBnCwj3mZTLV84sw9-a-79" value="Número de cuenta" style="strokeWidth=2;html=1;shape=mxgraph.flowchart.start_1;whiteSpace=wrap;" vertex="1" parent="1">
          <mxGeometry x="1410" y="977.5" width="100" height="60" as="geometry" />
        </mxCell>
        <mxCell id="1wBnCwj3mZTLV84sw9-a-86" value="" style="endArrow=none;html=1;rounded=0;entryX=0.5;entryY=0;entryDx=0;entryDy=0;" edge="1" parent="1" target="1wBnCwj3mZTLV84sw9-a-16">
          <mxGeometry width="50" height="50" relative="1" as="geometry">
            <mxPoint x="990" y="540" as="sourcePoint" />
            <mxPoint x="840" y="330" as="targetPoint" />
          </mxGeometry>
        </mxCell>
        <mxCell id="1wBnCwj3mZTLV84sw9-a-87" value="Tipo de" style="strokeWidth=2;html=1;shape=mxgraph.flowchart.decision;whiteSpace=wrap;" vertex="1" parent="1">
          <mxGeometry x="940" y="440" width="100" height="100" as="geometry" />
        </mxCell>
        <mxCell id="1wBnCwj3mZTLV84sw9-a-89" value="" style="endArrow=none;html=1;rounded=0;entryX=0.5;entryY=1;entryDx=0;entryDy=0;exitX=0.5;exitY=0;exitDx=0;exitDy=0;exitPerimeter=0;" edge="1" parent="1" source="1wBnCwj3mZTLV84sw9-a-87">
          <mxGeometry width="50" height="50" relative="1" as="geometry">
            <mxPoint x="790" y="260" as="sourcePoint" />
            <mxPoint x="990" y="390" as="targetPoint" />
          </mxGeometry>
        </mxCell>
        <mxCell id="1wBnCwj3mZTLV84sw9-a-90" value="1:n" style="text;strokeColor=none;fillColor=none;spacingLeft=4;spacingRight=4;overflow=hidden;rotatable=0;points=[[0,0.5],[1,0.5]];portConstraint=eastwest;fontSize=12;whiteSpace=wrap;html=1;" vertex="1" parent="1">
          <mxGeometry x="1050" y="475" width="40" height="30" as="geometry" />
        </mxCell>
        <mxCell id="1wBnCwj3mZTLV84sw9-a-93" style="edgeStyle=orthogonalEdgeStyle;rounded=0;orthogonalLoop=1;jettySize=auto;html=1;exitX=0.5;exitY=1;exitDx=0;exitDy=0;entryX=0.5;entryY=0;entryDx=0;entryDy=0;entryPerimeter=0;" edge="1" parent="1" source="1wBnCwj3mZTLV84sw9-a-12" target="1wBnCwj3mZTLV84sw9-a-74">
          <mxGeometry relative="1" as="geometry" />
        </mxCell>
        <mxCell id="1wBnCwj3mZTLV84sw9-a-94" style="edgeStyle=orthogonalEdgeStyle;rounded=0;orthogonalLoop=1;jettySize=auto;html=1;exitX=0.5;exitY=1;exitDx=0;exitDy=0;entryX=0.5;entryY=0;entryDx=0;entryDy=0;entryPerimeter=0;" edge="1" parent="1" source="1wBnCwj3mZTLV84sw9-a-12" target="1wBnCwj3mZTLV84sw9-a-75">
          <mxGeometry relative="1" as="geometry" />
        </mxCell>
        <mxCell id="1wBnCwj3mZTLV84sw9-a-95" style="edgeStyle=orthogonalEdgeStyle;rounded=0;orthogonalLoop=1;jettySize=auto;html=1;exitX=0.5;exitY=1;exitDx=0;exitDy=0;entryX=0.5;entryY=0;entryDx=0;entryDy=0;entryPerimeter=0;" edge="1" parent="1" source="1wBnCwj3mZTLV84sw9-a-12" target="1wBnCwj3mZTLV84sw9-a-76">
          <mxGeometry relative="1" as="geometry" />
        </mxCell>
        <mxCell id="1wBnCwj3mZTLV84sw9-a-96" style="edgeStyle=orthogonalEdgeStyle;rounded=0;orthogonalLoop=1;jettySize=auto;html=1;exitX=0.5;exitY=1;exitDx=0;exitDy=0;entryX=0.5;entryY=0;entryDx=0;entryDy=0;entryPerimeter=0;" edge="1" parent="1" source="1wBnCwj3mZTLV84sw9-a-12" target="1wBnCwj3mZTLV84sw9-a-77">
          <mxGeometry relative="1" as="geometry" />
        </mxCell>
        <mxCell id="1wBnCwj3mZTLV84sw9-a-99" style="edgeStyle=orthogonalEdgeStyle;rounded=0;orthogonalLoop=1;jettySize=auto;html=1;exitX=0.5;exitY=1;exitDx=0;exitDy=0;entryX=0.5;entryY=0;entryDx=0;entryDy=0;entryPerimeter=0;" edge="1" parent="1" source="1wBnCwj3mZTLV84sw9-a-12" target="1wBnCwj3mZTLV84sw9-a-78">
          <mxGeometry relative="1" as="geometry" />
        </mxCell>
        <mxCell id="1wBnCwj3mZTLV84sw9-a-100" style="edgeStyle=orthogonalEdgeStyle;rounded=0;orthogonalLoop=1;jettySize=auto;html=1;exitX=0.5;exitY=1;exitDx=0;exitDy=0;entryX=0.5;entryY=0;entryDx=0;entryDy=0;entryPerimeter=0;" edge="1" parent="1" source="1wBnCwj3mZTLV84sw9-a-12" target="1wBnCwj3mZTLV84sw9-a-79">
          <mxGeometry relative="1" as="geometry" />
        </mxCell>
        <mxCell id="1wBnCwj3mZTLV84sw9-a-101" value="1:n" style="text;strokeColor=none;fillColor=none;spacingLeft=4;spacingRight=4;overflow=hidden;rotatable=0;points=[[0,0.5],[1,0.5]];portConstraint=eastwest;fontSize=12;whiteSpace=wrap;html=1;" vertex="1" parent="1">
          <mxGeometry x="680" y="755" width="40" height="30" as="geometry" />
        </mxCell>
        <mxCell id="1wBnCwj3mZTLV84sw9-a-102" value="Tipos de pago" style="shape=ext;margin=3;double=1;whiteSpace=wrap;html=1;align=center;" vertex="1" parent="1">
          <mxGeometry x="925" y="330" width="130" height="60" as="geometry" />
        </mxCell>
      </root>
    </mxGraphModel>
  </diagram>
</mxfile>
